<svg viewBox="0 0 1024 1024" fill="none" xmlns="http://www.w3.org/2000/svg">
  <path d="M512 384C512 384 450 128 320 64C320 64 384 128 384 256C384 384 512 384 512 384Z" fill="#8cba9c"/>
  <path d="M512 384C512 384 574 128 704 64C704 64 640 128 640 256C640 384 512 384 512 384Z" fill="#4a7459"/>
  <path d="M896 640C896 820 724 960 512 960C300 960 128 820 128 640C128 460 300 320 512 320C724 320 896 460 896 640Z" fill="#2c4a36"/>
  <path d="M512 448C448 448 384 480 384 544C384 608 448 640 512 640C576 640 640 608 640 544C640 480 576 448 512 448Z" stroke="white" stroke-width="32" stroke-linecap="round"/>
</svg>
